<mxfile host="app.diagrams.net" modified="2023-11-02T16:22:08.818Z" agent="Mozilla/5.0 (X11; Ubuntu; Linux x86_64; rv:109.0) Gecko/20100101 Firefox/118.0" etag="U6B3GY-OE32JCEvxTpgd" version="22.0.8" type="device">
  <diagram name="Page-1" id="dK42RDmOKsvTsrfNAPbs">
    <mxGraphModel dx="2614" dy="2478" grid="1" gridSize="10" guides="1" tooltips="1" connect="1" arrows="1" fold="1" page="1" pageScale="1" pageWidth="850" pageHeight="1100" math="0" shadow="0">
      <root>
        <mxCell id="0" />
        <mxCell id="1" parent="0" />
        <mxCell id="q3prYv0-p_nsQXFJC9uw-28" value="-Assigns taken time slots (+-5)" style="text;html=1;strokeColor=none;fillColor=none;align=center;verticalAlign=middle;whiteSpace=wrap;rounded=0;" parent="1" vertex="1">
          <mxGeometry x="150" y="490" width="180" height="20" as="geometry" />
        </mxCell>
        <mxCell id="lgq6noS7nZ7h5ywPPUq3-3" style="edgeStyle=orthogonalEdgeStyle;rounded=0;orthogonalLoop=1;jettySize=auto;html=1;exitX=1;exitY=0.5;exitDx=0;exitDy=0;entryX=0;entryY=0.5;entryDx=0;entryDy=0;" parent="1" source="q3prYv0-p_nsQXFJC9uw-30" target="q3prYv0-p_nsQXFJC9uw-33" edge="1">
          <mxGeometry relative="1" as="geometry" />
        </mxCell>
        <mxCell id="q3prYv0-p_nsQXFJC9uw-30" value="Idle state" style="rounded=1;whiteSpace=wrap;html=1;" parent="1" vertex="1">
          <mxGeometry x="520" y="632.5" width="100" height="30" as="geometry" />
        </mxCell>
        <mxCell id="lgq6noS7nZ7h5ywPPUq3-72" style="edgeStyle=orthogonalEdgeStyle;rounded=0;orthogonalLoop=1;jettySize=auto;html=1;exitX=1;exitY=0.5;exitDx=0;exitDy=0;" parent="1" source="q3prYv0-p_nsQXFJC9uw-32" target="q3prYv0-p_nsQXFJC9uw-40" edge="1">
          <mxGeometry relative="1" as="geometry" />
        </mxCell>
        <mxCell id="q3prYv0-p_nsQXFJC9uw-32" value="Wait for parent request connection answer" style="rounded=1;whiteSpace=wrap;html=1;" parent="1" vertex="1">
          <mxGeometry x="1235" y="1071.25" width="130" height="30" as="geometry" />
        </mxCell>
        <mxCell id="lgq6noS7nZ7h5ywPPUq3-5" style="edgeStyle=orthogonalEdgeStyle;rounded=0;orthogonalLoop=1;jettySize=auto;html=1;exitX=1;exitY=0.5;exitDx=0;exitDy=0;entryX=0;entryY=0.5;entryDx=0;entryDy=0;" parent="1" source="q3prYv0-p_nsQXFJC9uw-33" target="q3prYv0-p_nsQXFJC9uw-34" edge="1">
          <mxGeometry relative="1" as="geometry" />
        </mxCell>
        <mxCell id="q3prYv0-p_nsQXFJC9uw-33" value="Connected Idle" style="rounded=1;whiteSpace=wrap;html=1;" parent="1" vertex="1">
          <mxGeometry x="845" y="632.5" width="100" height="30" as="geometry" />
        </mxCell>
        <mxCell id="lgq6noS7nZ7h5ywPPUq3-9" style="edgeStyle=orthogonalEdgeStyle;rounded=0;orthogonalLoop=1;jettySize=auto;html=1;exitX=1;exitY=0.5;exitDx=0;exitDy=0;entryX=0;entryY=0.5;entryDx=0;entryDy=0;" parent="1" source="q3prYv0-p_nsQXFJC9uw-34" target="q3prYv0-p_nsQXFJC9uw-41" edge="1">
          <mxGeometry relative="1" as="geometry" />
        </mxCell>
        <mxCell id="q3prYv0-p_nsQXFJC9uw-34" value="Transmitting CRW beacon" style="rounded=1;whiteSpace=wrap;html=1;" parent="1" vertex="1">
          <mxGeometry x="1050" y="632.5" width="100" height="30" as="geometry" />
        </mxCell>
        <mxCell id="lgq6noS7nZ7h5ywPPUq3-26" style="edgeStyle=orthogonalEdgeStyle;rounded=0;orthogonalLoop=1;jettySize=auto;html=1;exitX=1;exitY=0.5;exitDx=0;exitDy=0;entryX=0;entryY=0.5;entryDx=0;entryDy=0;" parent="1" source="q3prYv0-p_nsQXFJC9uw-39" target="q3prYv0-p_nsQXFJC9uw-32" edge="1">
          <mxGeometry relative="1" as="geometry">
            <Array as="points">
              <mxPoint x="720" y="1086" />
              <mxPoint x="720" y="1086" />
            </Array>
          </mxGeometry>
        </mxCell>
        <mxCell id="q3prYv0-p_nsQXFJC9uw-39" value="Idle state" style="rounded=1;whiteSpace=wrap;html=1;" parent="1" vertex="1">
          <mxGeometry x="520" y="1071.25" width="100" height="30" as="geometry" />
        </mxCell>
        <mxCell id="lgq6noS7nZ7h5ywPPUq3-75" style="edgeStyle=orthogonalEdgeStyle;rounded=0;orthogonalLoop=1;jettySize=auto;html=1;exitX=1;exitY=0.5;exitDx=0;exitDy=0;" parent="1" source="q3prYv0-p_nsQXFJC9uw-40" edge="1">
          <mxGeometry relative="1" as="geometry">
            <mxPoint x="1960" y="1030" as="targetPoint" />
            <mxPoint x="1940" y="1080" as="sourcePoint" />
            <Array as="points">
              <mxPoint x="1920" y="1086" />
              <mxPoint x="1920" y="1030" />
            </Array>
          </mxGeometry>
        </mxCell>
        <mxCell id="q3prYv0-p_nsQXFJC9uw-40" value="Connected Idle" style="rounded=1;whiteSpace=wrap;html=1;" parent="1" vertex="1">
          <mxGeometry x="1787.5" y="1071.25" width="100" height="30" as="geometry" />
        </mxCell>
        <mxCell id="lgq6noS7nZ7h5ywPPUq3-13" style="edgeStyle=orthogonalEdgeStyle;rounded=0;orthogonalLoop=1;jettySize=auto;html=1;exitX=1;exitY=0.5;exitDx=0;exitDy=0;entryX=0;entryY=0.5;entryDx=0;entryDy=0;" parent="1" source="q3prYv0-p_nsQXFJC9uw-41" target="q3prYv0-p_nsQXFJC9uw-43" edge="1">
          <mxGeometry relative="1" as="geometry" />
        </mxCell>
        <mxCell id="q3prYv0-p_nsQXFJC9uw-41" value="Receiving Children" style="rounded=1;whiteSpace=wrap;html=1;" parent="1" vertex="1">
          <mxGeometry x="1250" y="632.5" width="100" height="30" as="geometry" />
        </mxCell>
        <mxCell id="lgq6noS7nZ7h5ywPPUq3-21" style="edgeStyle=orthogonalEdgeStyle;rounded=0;orthogonalLoop=1;jettySize=auto;html=1;exitX=1;exitY=0.5;exitDx=0;exitDy=0;entryX=0;entryY=0.5;entryDx=0;entryDy=0;" parent="1" source="q3prYv0-p_nsQXFJC9uw-43" target="lgq6noS7nZ7h5ywPPUq3-19" edge="1">
          <mxGeometry relative="1" as="geometry" />
        </mxCell>
        <mxCell id="q3prYv0-p_nsQXFJC9uw-43" value="Transmitting (OTAARegAck) Beacon" style="rounded=1;whiteSpace=wrap;html=1;" parent="1" vertex="1">
          <mxGeometry x="1550" y="630" width="130" height="33.75" as="geometry" />
        </mxCell>
        <mxCell id="q3prYv0-p_nsQXFJC9uw-46" style="edgeStyle=orthogonalEdgeStyle;rounded=0;orthogonalLoop=1;jettySize=auto;html=1;exitX=0.5;exitY=1;exitDx=0;exitDy=0;entryX=0.5;entryY=0;entryDx=0;entryDy=0;" parent="1" source="q3prYv0-p_nsQXFJC9uw-45" edge="1">
          <mxGeometry relative="1" as="geometry">
            <mxPoint x="157.5" y="780" as="targetPoint" />
          </mxGeometry>
        </mxCell>
        <mxCell id="q3prYv0-p_nsQXFJC9uw-54" style="edgeStyle=orthogonalEdgeStyle;rounded=0;orthogonalLoop=1;jettySize=auto;html=1;exitX=1;exitY=0.5;exitDx=0;exitDy=0;entryX=0;entryY=0.5;entryDx=0;entryDy=0;" parent="1" source="q3prYv0-p_nsQXFJC9uw-45" target="q3prYv0-p_nsQXFJC9uw-55" edge="1">
          <mxGeometry relative="1" as="geometry">
            <mxPoint x="280" y="648" as="targetPoint" />
          </mxGeometry>
        </mxCell>
        <mxCell id="q3prYv0-p_nsQXFJC9uw-45" value="GPS Time" style="whiteSpace=wrap;html=1;aspect=fixed;" parent="1" vertex="1">
          <mxGeometry x="130" y="620" width="55" height="55" as="geometry" />
        </mxCell>
        <mxCell id="q3prYv0-p_nsQXFJC9uw-52" style="edgeStyle=orthogonalEdgeStyle;rounded=0;orthogonalLoop=1;jettySize=auto;html=1;exitX=0.5;exitY=1;exitDx=0;exitDy=0;entryX=0.5;entryY=0;entryDx=0;entryDy=0;" parent="1" source="q3prYv0-p_nsQXFJC9uw-47" target="q3prYv0-p_nsQXFJC9uw-61" edge="1">
          <mxGeometry relative="1" as="geometry">
            <mxPoint x="158" y="880" as="targetPoint" />
          </mxGeometry>
        </mxCell>
        <mxCell id="q3prYv0-p_nsQXFJC9uw-47" value="" style="ellipse;whiteSpace=wrap;html=1;aspect=fixed;" parent="1" vertex="1">
          <mxGeometry x="142.5" y="780" width="30" height="30" as="geometry" />
        </mxCell>
        <mxCell id="q3prYv0-p_nsQXFJC9uw-49" value="_" style="text;html=1;strokeColor=none;fillColor=none;align=center;verticalAlign=middle;whiteSpace=wrap;rounded=0;" parent="1" vertex="1">
          <mxGeometry x="110" y="760" width="62.5" height="30" as="geometry" />
        </mxCell>
        <mxCell id="q3prYv0-p_nsQXFJC9uw-51" style="edgeStyle=orthogonalEdgeStyle;rounded=0;orthogonalLoop=1;jettySize=auto;html=1;exitX=1;exitY=0.5;exitDx=0;exitDy=0;" parent="1" source="q3prYv0-p_nsQXFJC9uw-50" edge="1">
          <mxGeometry relative="1" as="geometry">
            <mxPoint x="140" y="795" as="targetPoint" />
          </mxGeometry>
        </mxCell>
        <mxCell id="q3prYv0-p_nsQXFJC9uw-50" value="&lt;div&gt;GPS previous&lt;/div&gt;&lt;div&gt;Time &lt;/div&gt;" style="whiteSpace=wrap;html=1;aspect=fixed;" parent="1" vertex="1">
          <mxGeometry x="20" y="767.5" width="55" height="55" as="geometry" />
        </mxCell>
        <mxCell id="q3prYv0-p_nsQXFJC9uw-53" value="Crystal ticks (deltaT)" style="text;html=1;strokeColor=none;fillColor=none;align=center;verticalAlign=middle;whiteSpace=wrap;rounded=0;" parent="1" vertex="1">
          <mxGeometry x="170" y="822.5" width="60" height="30" as="geometry" />
        </mxCell>
        <mxCell id="q3prYv0-p_nsQXFJC9uw-58" style="edgeStyle=orthogonalEdgeStyle;rounded=0;orthogonalLoop=1;jettySize=auto;html=1;exitX=0.5;exitY=0;exitDx=0;exitDy=0;entryX=0.5;entryY=0;entryDx=0;entryDy=0;" parent="1" source="q3prYv0-p_nsQXFJC9uw-55" target="q3prYv0-p_nsQXFJC9uw-45" edge="1">
          <mxGeometry relative="1" as="geometry" />
        </mxCell>
        <mxCell id="q3prYv0-p_nsQXFJC9uw-148" style="edgeStyle=orthogonalEdgeStyle;rounded=0;orthogonalLoop=1;jettySize=auto;html=1;exitX=1;exitY=0.5;exitDx=0;exitDy=0;entryX=0;entryY=0.5;entryDx=0;entryDy=0;" parent="1" source="q3prYv0-p_nsQXFJC9uw-55" edge="1">
          <mxGeometry relative="1" as="geometry">
            <mxPoint x="520" y="647.5" as="targetPoint" />
          </mxGeometry>
        </mxCell>
        <mxCell id="q3prYv0-p_nsQXFJC9uw-55" value="hardcoded parent" style="rounded=0;whiteSpace=wrap;html=1;" parent="1" vertex="1">
          <mxGeometry x="330" y="622.5" width="90" height="50" as="geometry" />
        </mxCell>
        <mxCell id="q3prYv0-p_nsQXFJC9uw-155" style="edgeStyle=orthogonalEdgeStyle;rounded=0;orthogonalLoop=1;jettySize=auto;html=1;exitX=1;exitY=0.5;exitDx=0;exitDy=0;entryX=0;entryY=0.5;entryDx=0;entryDy=0;" parent="1" source="q3prYv0-p_nsQXFJC9uw-56" target="q3prYv0-p_nsQXFJC9uw-39" edge="1">
          <mxGeometry relative="1" as="geometry" />
        </mxCell>
        <mxCell id="q3prYv0-p_nsQXFJC9uw-56" value="child node" style="rounded=0;whiteSpace=wrap;html=1;" parent="1" vertex="1">
          <mxGeometry x="330" y="1061.25" width="90" height="50" as="geometry" />
        </mxCell>
        <mxCell id="q3prYv0-p_nsQXFJC9uw-59" value="timestamp request" style="text;html=1;strokeColor=none;fillColor=none;align=center;verticalAlign=middle;whiteSpace=wrap;rounded=0;" parent="1" vertex="1">
          <mxGeometry x="210" y="570" width="60" height="30" as="geometry" />
        </mxCell>
        <mxCell id="q3prYv0-p_nsQXFJC9uw-68" style="edgeStyle=orthogonalEdgeStyle;rounded=0;orthogonalLoop=1;jettySize=auto;html=1;exitX=1;exitY=0.5;exitDx=0;exitDy=0;entryX=0;entryY=0.5;entryDx=0;entryDy=0;" parent="1" source="q3prYv0-p_nsQXFJC9uw-61" target="q3prYv0-p_nsQXFJC9uw-66" edge="1">
          <mxGeometry relative="1" as="geometry" />
        </mxCell>
        <mxCell id="q3prYv0-p_nsQXFJC9uw-61" value="" style="ellipse;whiteSpace=wrap;html=1;aspect=fixed;" parent="1" vertex="1">
          <mxGeometry x="142.5" y="1071.25" width="30" height="30" as="geometry" />
        </mxCell>
        <mxCell id="q3prYv0-p_nsQXFJC9uw-64" value="+" style="text;html=1;strokeColor=none;fillColor=none;align=center;verticalAlign=middle;whiteSpace=wrap;rounded=0;" parent="1" vertex="1">
          <mxGeometry x="110" y="1050" width="62.5" height="30" as="geometry" />
        </mxCell>
        <mxCell id="q3prYv0-p_nsQXFJC9uw-67" style="edgeStyle=orthogonalEdgeStyle;rounded=0;orthogonalLoop=1;jettySize=auto;html=1;entryX=0.5;entryY=1;entryDx=0;entryDy=0;exitX=0.25;exitY=1;exitDx=0;exitDy=0;" parent="1" source="q3prYv0-p_nsQXFJC9uw-66" target="q3prYv0-p_nsQXFJC9uw-61" edge="1">
          <mxGeometry relative="1" as="geometry" />
        </mxCell>
        <mxCell id="q3prYv0-p_nsQXFJC9uw-69" style="edgeStyle=orthogonalEdgeStyle;rounded=0;orthogonalLoop=1;jettySize=auto;html=1;exitX=1;exitY=0.5;exitDx=0;exitDy=0;entryX=0;entryY=0.5;entryDx=0;entryDy=0;" parent="1" source="q3prYv0-p_nsQXFJC9uw-66" target="q3prYv0-p_nsQXFJC9uw-56" edge="1">
          <mxGeometry relative="1" as="geometry" />
        </mxCell>
        <mxCell id="q3prYv0-p_nsQXFJC9uw-66" value="Time" style="whiteSpace=wrap;html=1;aspect=fixed;" parent="1" vertex="1">
          <mxGeometry x="232.5" y="1060" width="52.5" height="52.5" as="geometry" />
        </mxCell>
        <mxCell id="q3prYv0-p_nsQXFJC9uw-73" value="Crystal ticks =&amp;nbsp; Crystal ticks *(1 + (Crystal PPM/1000000))" style="rounded=0;whiteSpace=wrap;html=1;" parent="1" vertex="1">
          <mxGeometry x="90" y="870" width="130" height="60" as="geometry" />
        </mxCell>
        <mxCell id="q3prYv0-p_nsQXFJC9uw-77" style="edgeStyle=orthogonalEdgeStyle;rounded=0;orthogonalLoop=1;jettySize=auto;html=1;exitX=1;exitY=0.5;exitDx=0;exitDy=0;entryX=0;entryY=0.5;entryDx=0;entryDy=0;" parent="1" source="q3prYv0-p_nsQXFJC9uw-76" target="q3prYv0-p_nsQXFJC9uw-73" edge="1">
          <mxGeometry relative="1" as="geometry" />
        </mxCell>
        <mxCell id="q3prYv0-p_nsQXFJC9uw-76" value="Crystal PPM" style="rounded=0;whiteSpace=wrap;html=1;" parent="1" vertex="1">
          <mxGeometry x="20" y="880" width="50" height="40" as="geometry" />
        </mxCell>
        <mxCell id="q3prYv0-p_nsQXFJC9uw-79" value="&lt;div&gt;0&lt;/div&gt;" style="rounded=0;whiteSpace=wrap;html=1;rotation=-180;" parent="1" vertex="1">
          <mxGeometry x="1540" y="1397.5" width="30" height="20" as="geometry" />
        </mxCell>
        <mxCell id="q3prYv0-p_nsQXFJC9uw-80" value="" style="rounded=0;whiteSpace=wrap;html=1;rotation=0;strokeColor=#000000;fillColor=#FF9933;" parent="1" vertex="1">
          <mxGeometry x="1570" y="1397.5" width="30" height="20" as="geometry" />
        </mxCell>
        <mxCell id="q3prYv0-p_nsQXFJC9uw-81" value="" style="rounded=0;whiteSpace=wrap;html=1;rotation=-180;strokeColor=#000000;fillColor=#FF9933;" parent="1" vertex="1">
          <mxGeometry x="1600" y="1397.5" width="30" height="20" as="geometry" />
        </mxCell>
        <mxCell id="q3prYv0-p_nsQXFJC9uw-82" value="" style="rounded=0;whiteSpace=wrap;html=1;rotation=-180;strokeColor=#000000;fillColor=#FF9933;" parent="1" vertex="1">
          <mxGeometry x="1630" y="1397.5" width="30" height="20" as="geometry" />
        </mxCell>
        <mxCell id="q3prYv0-p_nsQXFJC9uw-83" value="" style="rounded=0;whiteSpace=wrap;html=1;rotation=-180;strokeColor=#000000;fillColor=#FF9933;" parent="1" vertex="1">
          <mxGeometry x="1660" y="1397.5" width="30" height="20" as="geometry" />
        </mxCell>
        <mxCell id="q3prYv0-p_nsQXFJC9uw-84" value="" style="rounded=0;whiteSpace=wrap;html=1;rotation=-180;strokeColor=#000000;fillColor=#FF9933;" parent="1" vertex="1">
          <mxGeometry x="1690" y="1397.5" width="30" height="20" as="geometry" />
        </mxCell>
        <mxCell id="q3prYv0-p_nsQXFJC9uw-85" value="" style="rounded=0;whiteSpace=wrap;html=1;rotation=-180;" parent="1" vertex="1">
          <mxGeometry x="1720" y="1397.5" width="30" height="20" as="geometry" />
        </mxCell>
        <mxCell id="q3prYv0-p_nsQXFJC9uw-86" value="" style="rounded=0;whiteSpace=wrap;html=1;rotation=-180;" parent="1" vertex="1">
          <mxGeometry x="1750" y="1397.5" width="30" height="20" as="geometry" />
        </mxCell>
        <mxCell id="q3prYv0-p_nsQXFJC9uw-87" value="" style="rounded=0;whiteSpace=wrap;html=1;rotation=-180;" parent="1" vertex="1">
          <mxGeometry x="1780" y="1397.5" width="30" height="20" as="geometry" />
        </mxCell>
        <mxCell id="q3prYv0-p_nsQXFJC9uw-88" value="" style="rounded=0;whiteSpace=wrap;html=1;rotation=-180;" parent="1" vertex="1">
          <mxGeometry x="1810" y="1397.5" width="30" height="20" as="geometry" />
        </mxCell>
        <mxCell id="q3prYv0-p_nsQXFJC9uw-89" value="" style="rounded=0;whiteSpace=wrap;html=1;rotation=-180;" parent="1" vertex="1">
          <mxGeometry x="1840" y="1397.5" width="30" height="20" as="geometry" />
        </mxCell>
        <mxCell id="q3prYv0-p_nsQXFJC9uw-90" value="" style="rounded=0;whiteSpace=wrap;html=1;rotation=-180;" parent="1" vertex="1">
          <mxGeometry x="1870" y="1397.5" width="30" height="20" as="geometry" />
        </mxCell>
        <mxCell id="q3prYv0-p_nsQXFJC9uw-91" value="" style="rounded=0;whiteSpace=wrap;html=1;rotation=-180;" parent="1" vertex="1">
          <mxGeometry x="1900" y="1397.5" width="30" height="20" as="geometry" />
        </mxCell>
        <mxCell id="q3prYv0-p_nsQXFJC9uw-92" value="" style="rounded=0;whiteSpace=wrap;html=1;rotation=-180;" parent="1" vertex="1">
          <mxGeometry x="1930" y="1397.5" width="30" height="20" as="geometry" />
        </mxCell>
        <mxCell id="q3prYv0-p_nsQXFJC9uw-93" value="" style="rounded=0;whiteSpace=wrap;html=1;rotation=-180;" parent="1" vertex="1">
          <mxGeometry x="1960" y="1397.5" width="30" height="20" as="geometry" />
        </mxCell>
        <mxCell id="q3prYv0-p_nsQXFJC9uw-94" value="" style="rounded=0;whiteSpace=wrap;html=1;rotation=-180;strokeColor=#000000;fillColor=#FF9933;" parent="1" vertex="1">
          <mxGeometry x="1990" y="1397.5" width="30" height="20" as="geometry" />
        </mxCell>
        <mxCell id="q3prYv0-p_nsQXFJC9uw-95" value="" style="rounded=0;whiteSpace=wrap;html=1;rotation=-180;strokeColor=#000000;fillColor=#FF9933;" parent="1" vertex="1">
          <mxGeometry x="2020" y="1397.5" width="30" height="20" as="geometry" />
        </mxCell>
        <mxCell id="q3prYv0-p_nsQXFJC9uw-96" value="" style="rounded=0;whiteSpace=wrap;html=1;rotation=-180;strokeColor=#000000;fillColor=#FF9933;" parent="1" vertex="1">
          <mxGeometry x="2050" y="1397.5" width="30" height="20" as="geometry" />
        </mxCell>
        <mxCell id="q3prYv0-p_nsQXFJC9uw-97" value="" style="rounded=0;whiteSpace=wrap;html=1;rotation=-180;strokeColor=#000000;fillColor=#FF9933;" parent="1" vertex="1">
          <mxGeometry x="2080" y="1397.5" width="30" height="20" as="geometry" />
        </mxCell>
        <mxCell id="q3prYv0-p_nsQXFJC9uw-98" value="20" style="rounded=0;whiteSpace=wrap;html=1;rotation=0;strokeColor=#000000;fillColor=#FF9933;" parent="1" vertex="1">
          <mxGeometry x="2110" y="1397.5" width="30" height="20" as="geometry" />
        </mxCell>
        <mxCell id="q3prYv0-p_nsQXFJC9uw-99" value="Time Slot Array [per node]" style="text;html=1;strokeColor=none;fillColor=none;align=center;verticalAlign=middle;whiteSpace=wrap;rounded=0;" parent="1" vertex="1">
          <mxGeometry x="1540" y="1427.5" width="100" height="20" as="geometry" />
        </mxCell>
        <mxCell id="q3prYv0-p_nsQXFJC9uw-100" value="crw" style="text;html=1;strokeColor=none;fillColor=none;align=center;verticalAlign=middle;whiteSpace=wrap;rounded=0;" parent="1" vertex="1">
          <mxGeometry x="1540" y="1377.5" width="100" height="20" as="geometry" />
        </mxCell>
        <mxCell id="q3prYv0-p_nsQXFJC9uw-101" value="crw" style="text;html=1;strokeColor=none;fillColor=none;align=center;verticalAlign=middle;whiteSpace=wrap;rounded=0;" parent="1" vertex="1">
          <mxGeometry x="1565" y="1377.5" width="100" height="20" as="geometry" />
        </mxCell>
        <mxCell id="q3prYv0-p_nsQXFJC9uw-102" value="crw" style="text;html=1;strokeColor=none;fillColor=none;align=center;verticalAlign=middle;whiteSpace=wrap;rounded=0;" parent="1" vertex="1">
          <mxGeometry x="1595" y="1377.5" width="100" height="20" as="geometry" />
        </mxCell>
        <mxCell id="q3prYv0-p_nsQXFJC9uw-103" value="crw" style="text;html=1;strokeColor=none;fillColor=none;align=center;verticalAlign=middle;whiteSpace=wrap;rounded=0;" parent="1" vertex="1">
          <mxGeometry x="1625" y="1377.5" width="100" height="20" as="geometry" />
        </mxCell>
        <mxCell id="q3prYv0-p_nsQXFJC9uw-104" value="crw" style="text;html=1;strokeColor=none;fillColor=none;align=center;verticalAlign=middle;whiteSpace=wrap;rounded=0;" parent="1" vertex="1">
          <mxGeometry x="1655" y="1377.5" width="100" height="20" as="geometry" />
        </mxCell>
        <mxCell id="q3prYv0-p_nsQXFJC9uw-105" value="crw" style="text;html=1;strokeColor=none;fillColor=none;align=center;verticalAlign=middle;whiteSpace=wrap;rounded=0;" parent="1" vertex="1">
          <mxGeometry x="2020" y="1377.5" width="100" height="20" as="geometry" />
        </mxCell>
        <mxCell id="q3prYv0-p_nsQXFJC9uw-106" value="crw" style="text;html=1;strokeColor=none;fillColor=none;align=center;verticalAlign=middle;whiteSpace=wrap;rounded=0;" parent="1" vertex="1">
          <mxGeometry x="2050" y="1377.5" width="100" height="20" as="geometry" />
        </mxCell>
        <mxCell id="q3prYv0-p_nsQXFJC9uw-107" value="crw" style="text;html=1;strokeColor=none;fillColor=none;align=center;verticalAlign=middle;whiteSpace=wrap;rounded=0;" parent="1" vertex="1">
          <mxGeometry x="2075" y="1377.5" width="100" height="20" as="geometry" />
        </mxCell>
        <mxCell id="q3prYv0-p_nsQXFJC9uw-108" value="crw" style="text;html=1;strokeColor=none;fillColor=none;align=center;verticalAlign=middle;whiteSpace=wrap;rounded=0;" parent="1" vertex="1">
          <mxGeometry x="1985" y="1377.5" width="100" height="20" as="geometry" />
        </mxCell>
        <mxCell id="q3prYv0-p_nsQXFJC9uw-109" value="crw" style="text;html=1;strokeColor=none;fillColor=none;align=center;verticalAlign=middle;whiteSpace=wrap;rounded=0;" parent="1" vertex="1">
          <mxGeometry x="1955" y="1377.5" width="100" height="20" as="geometry" />
        </mxCell>
        <mxCell id="q3prYv0-p_nsQXFJC9uw-110" value="(child crw)" style="text;html=1;strokeColor=none;fillColor=none;align=center;verticalAlign=middle;whiteSpace=wrap;rounded=0;" parent="1" vertex="1">
          <mxGeometry x="1992.5" y="1357.5" width="100" height="20" as="geometry" />
        </mxCell>
        <mxCell id="q3prYv0-p_nsQXFJC9uw-113" value="&lt;div&gt;0&lt;/div&gt;" style="rounded=0;whiteSpace=wrap;html=1;rotation=-180;" parent="1" vertex="1">
          <mxGeometry x="415" y="850" width="30" height="20" as="geometry" />
        </mxCell>
        <mxCell id="q3prYv0-p_nsQXFJC9uw-114" value="" style="rounded=0;whiteSpace=wrap;html=1;rotation=0;strokeColor=#000000;fillColor=#FF9933;" parent="1" vertex="1">
          <mxGeometry x="445" y="850" width="30" height="20" as="geometry" />
        </mxCell>
        <mxCell id="q3prYv0-p_nsQXFJC9uw-115" value="" style="rounded=0;whiteSpace=wrap;html=1;rotation=-180;strokeColor=#000000;fillColor=#FF9933;" parent="1" vertex="1">
          <mxGeometry x="475" y="850" width="30" height="20" as="geometry" />
        </mxCell>
        <mxCell id="q3prYv0-p_nsQXFJC9uw-116" value="" style="rounded=0;whiteSpace=wrap;html=1;rotation=-180;strokeColor=#000000;fillColor=#FF9933;" parent="1" vertex="1">
          <mxGeometry x="505" y="850" width="30" height="20" as="geometry" />
        </mxCell>
        <mxCell id="q3prYv0-p_nsQXFJC9uw-117" value="" style="rounded=0;whiteSpace=wrap;html=1;rotation=-180;strokeColor=#000000;fillColor=#FF9933;" parent="1" vertex="1">
          <mxGeometry x="535" y="850" width="30" height="20" as="geometry" />
        </mxCell>
        <mxCell id="q3prYv0-p_nsQXFJC9uw-118" value="" style="rounded=0;whiteSpace=wrap;html=1;rotation=-180;strokeColor=#000000;fillColor=#FF9933;" parent="1" vertex="1">
          <mxGeometry x="565" y="850" width="30" height="20" as="geometry" />
        </mxCell>
        <mxCell id="q3prYv0-p_nsQXFJC9uw-119" value="" style="rounded=0;whiteSpace=wrap;html=1;rotation=-180;" parent="1" vertex="1">
          <mxGeometry x="595" y="850" width="30" height="20" as="geometry" />
        </mxCell>
        <mxCell id="q3prYv0-p_nsQXFJC9uw-120" value="" style="rounded=0;whiteSpace=wrap;html=1;rotation=-180;" parent="1" vertex="1">
          <mxGeometry x="625" y="850" width="30" height="20" as="geometry" />
        </mxCell>
        <mxCell id="q3prYv0-p_nsQXFJC9uw-121" value="" style="rounded=0;whiteSpace=wrap;html=1;rotation=-180;" parent="1" vertex="1">
          <mxGeometry x="655" y="850" width="30" height="20" as="geometry" />
        </mxCell>
        <mxCell id="q3prYv0-p_nsQXFJC9uw-122" value="" style="rounded=0;whiteSpace=wrap;html=1;rotation=-180;" parent="1" vertex="1">
          <mxGeometry x="685" y="850" width="30" height="20" as="geometry" />
        </mxCell>
        <mxCell id="q3prYv0-p_nsQXFJC9uw-123" value="" style="rounded=0;whiteSpace=wrap;html=1;rotation=-180;" parent="1" vertex="1">
          <mxGeometry x="715" y="850" width="30" height="20" as="geometry" />
        </mxCell>
        <mxCell id="q3prYv0-p_nsQXFJC9uw-124" value="" style="rounded=0;whiteSpace=wrap;html=1;rotation=-180;" parent="1" vertex="1">
          <mxGeometry x="745" y="850" width="30" height="20" as="geometry" />
        </mxCell>
        <mxCell id="q3prYv0-p_nsQXFJC9uw-125" value="" style="rounded=0;whiteSpace=wrap;html=1;rotation=-180;" parent="1" vertex="1">
          <mxGeometry x="775" y="850" width="30" height="20" as="geometry" />
        </mxCell>
        <mxCell id="q3prYv0-p_nsQXFJC9uw-126" value="" style="rounded=0;whiteSpace=wrap;html=1;rotation=-180;" parent="1" vertex="1">
          <mxGeometry x="805" y="850" width="30" height="20" as="geometry" />
        </mxCell>
        <mxCell id="q3prYv0-p_nsQXFJC9uw-127" value="" style="rounded=0;whiteSpace=wrap;html=1;rotation=-180;" parent="1" vertex="1">
          <mxGeometry x="835" y="850" width="30" height="20" as="geometry" />
        </mxCell>
        <mxCell id="q3prYv0-p_nsQXFJC9uw-128" value="" style="rounded=0;whiteSpace=wrap;html=1;rotation=-180;strokeColor=#000000;fillColor=#FF9933;" parent="1" vertex="1">
          <mxGeometry x="865" y="850" width="30" height="20" as="geometry" />
        </mxCell>
        <mxCell id="q3prYv0-p_nsQXFJC9uw-129" value="" style="rounded=0;whiteSpace=wrap;html=1;rotation=-180;strokeColor=#000000;fillColor=#FF9933;" parent="1" vertex="1">
          <mxGeometry x="895" y="850" width="30" height="20" as="geometry" />
        </mxCell>
        <mxCell id="q3prYv0-p_nsQXFJC9uw-130" value="" style="rounded=0;whiteSpace=wrap;html=1;rotation=-180;strokeColor=#000000;fillColor=#FF9933;" parent="1" vertex="1">
          <mxGeometry x="925" y="850" width="30" height="20" as="geometry" />
        </mxCell>
        <mxCell id="q3prYv0-p_nsQXFJC9uw-131" value="" style="rounded=0;whiteSpace=wrap;html=1;rotation=-180;strokeColor=#000000;fillColor=#FF9933;" parent="1" vertex="1">
          <mxGeometry x="955" y="850" width="30" height="20" as="geometry" />
        </mxCell>
        <mxCell id="q3prYv0-p_nsQXFJC9uw-132" value="20" style="rounded=0;whiteSpace=wrap;html=1;rotation=0;strokeColor=#000000;fillColor=#FF9933;" parent="1" vertex="1">
          <mxGeometry x="985" y="850" width="30" height="20" as="geometry" />
        </mxCell>
        <mxCell id="q3prYv0-p_nsQXFJC9uw-133" value="Time Slot Array [per node]" style="text;html=1;strokeColor=none;fillColor=none;align=center;verticalAlign=middle;whiteSpace=wrap;rounded=0;" parent="1" vertex="1">
          <mxGeometry x="415" y="880" width="100" height="20" as="geometry" />
        </mxCell>
        <mxCell id="q3prYv0-p_nsQXFJC9uw-134" value="crw" style="text;html=1;strokeColor=none;fillColor=none;align=center;verticalAlign=middle;whiteSpace=wrap;rounded=0;" parent="1" vertex="1">
          <mxGeometry x="415" y="830" width="100" height="20" as="geometry" />
        </mxCell>
        <mxCell id="q3prYv0-p_nsQXFJC9uw-135" value="crw" style="text;html=1;strokeColor=none;fillColor=none;align=center;verticalAlign=middle;whiteSpace=wrap;rounded=0;" parent="1" vertex="1">
          <mxGeometry x="440" y="830" width="100" height="20" as="geometry" />
        </mxCell>
        <mxCell id="q3prYv0-p_nsQXFJC9uw-136" value="crw" style="text;html=1;strokeColor=none;fillColor=none;align=center;verticalAlign=middle;whiteSpace=wrap;rounded=0;" parent="1" vertex="1">
          <mxGeometry x="470" y="830" width="100" height="20" as="geometry" />
        </mxCell>
        <mxCell id="q3prYv0-p_nsQXFJC9uw-137" value="crw" style="text;html=1;strokeColor=none;fillColor=none;align=center;verticalAlign=middle;whiteSpace=wrap;rounded=0;" parent="1" vertex="1">
          <mxGeometry x="500" y="830" width="100" height="20" as="geometry" />
        </mxCell>
        <mxCell id="q3prYv0-p_nsQXFJC9uw-138" value="crw" style="text;html=1;strokeColor=none;fillColor=none;align=center;verticalAlign=middle;whiteSpace=wrap;rounded=0;" parent="1" vertex="1">
          <mxGeometry x="530" y="830" width="100" height="20" as="geometry" />
        </mxCell>
        <mxCell id="q3prYv0-p_nsQXFJC9uw-139" value="crw" style="text;html=1;strokeColor=none;fillColor=none;align=center;verticalAlign=middle;whiteSpace=wrap;rounded=0;" parent="1" vertex="1">
          <mxGeometry x="895" y="830" width="100" height="20" as="geometry" />
        </mxCell>
        <mxCell id="q3prYv0-p_nsQXFJC9uw-140" value="crw" style="text;html=1;strokeColor=none;fillColor=none;align=center;verticalAlign=middle;whiteSpace=wrap;rounded=0;" parent="1" vertex="1">
          <mxGeometry x="925" y="830" width="100" height="20" as="geometry" />
        </mxCell>
        <mxCell id="q3prYv0-p_nsQXFJC9uw-141" value="crw" style="text;html=1;strokeColor=none;fillColor=none;align=center;verticalAlign=middle;whiteSpace=wrap;rounded=0;" parent="1" vertex="1">
          <mxGeometry x="950" y="830" width="100" height="20" as="geometry" />
        </mxCell>
        <mxCell id="q3prYv0-p_nsQXFJC9uw-142" value="crw" style="text;html=1;strokeColor=none;fillColor=none;align=center;verticalAlign=middle;whiteSpace=wrap;rounded=0;" parent="1" vertex="1">
          <mxGeometry x="860" y="830" width="100" height="20" as="geometry" />
        </mxCell>
        <mxCell id="q3prYv0-p_nsQXFJC9uw-143" value="crw" style="text;html=1;strokeColor=none;fillColor=none;align=center;verticalAlign=middle;whiteSpace=wrap;rounded=0;" parent="1" vertex="1">
          <mxGeometry x="830" y="830" width="100" height="20" as="geometry" />
        </mxCell>
        <mxCell id="q3prYv0-p_nsQXFJC9uw-144" value="(child crw)" style="text;html=1;strokeColor=none;fillColor=none;align=center;verticalAlign=middle;whiteSpace=wrap;rounded=0;" parent="1" vertex="1">
          <mxGeometry x="885" y="810" width="100" height="20" as="geometry" />
        </mxCell>
        <mxCell id="q3prYv0-p_nsQXFJC9uw-145" value="epoch time / timeSlot size (80/4) = 20" style="text;html=1;strokeColor=none;fillColor=none;align=center;verticalAlign=middle;whiteSpace=wrap;rounded=0;" parent="1" vertex="1">
          <mxGeometry x="1754" y="1497.5" width="170" height="30" as="geometry" />
        </mxCell>
        <mxCell id="q3prYv0-p_nsQXFJC9uw-146" value="" style="shape=curlyBracket;whiteSpace=wrap;html=1;rounded=1;flipH=1;labelPosition=right;verticalLabelPosition=middle;align=left;verticalAlign=middle;rotation=90;" parent="1" vertex="1">
          <mxGeometry x="1830" y="1250" width="15" height="470" as="geometry" />
        </mxCell>
        <mxCell id="q3prYv0-p_nsQXFJC9uw-149" value="Assigns timestamp function" style="text;html=1;strokeColor=none;fillColor=none;align=center;verticalAlign=middle;whiteSpace=wrap;rounded=0;" parent="1" vertex="1">
          <mxGeometry x="150" y="470" width="180" height="20" as="geometry" />
        </mxCell>
        <mxCell id="q3prYv0-p_nsQXFJC9uw-150" value="Initialisation" style="rounded=1;whiteSpace=wrap;html=1;" parent="1" vertex="1">
          <mxGeometry x="190" y="430" width="100" height="30" as="geometry" />
        </mxCell>
        <mxCell id="q3prYv0-p_nsQXFJC9uw-151" value="" style="shape=curlyBracket;whiteSpace=wrap;html=1;rounded=1;flipH=1;labelPosition=right;verticalLabelPosition=middle;align=left;verticalAlign=middle;rotation=-90;" parent="1" vertex="1">
          <mxGeometry x="240" y="320" width="15" height="470" as="geometry" />
        </mxCell>
        <mxCell id="q3prYv0-p_nsQXFJC9uw-152" value="-Assigns Crystal PPM" style="text;html=1;strokeColor=none;fillColor=none;align=center;verticalAlign=middle;whiteSpace=wrap;rounded=0;" parent="1" vertex="1">
          <mxGeometry x="150" y="510" width="180" height="20" as="geometry" />
        </mxCell>
        <mxCell id="q3prYv0-p_nsQXFJC9uw-153" value="&lt;i&gt;(condition: has a parent)&lt;/i&gt;" style="text;html=1;strokeColor=#FFFFFF;fillColor=none;align=center;verticalAlign=middle;whiteSpace=wrap;rounded=0;" parent="1" vertex="1">
          <mxGeometry x="482.5" y="670" width="180" height="20" as="geometry" />
        </mxCell>
        <mxCell id="q3prYv0-p_nsQXFJC9uw-154" value="&lt;i&gt;(condition: doesn&#39;t have a parent)&lt;/i&gt;" style="text;html=1;strokeColor=#FFFFFF;fillColor=none;align=center;verticalAlign=middle;whiteSpace=wrap;rounded=0;" parent="1" vertex="1">
          <mxGeometry x="472.5" y="1110" width="180" height="20" as="geometry" />
        </mxCell>
        <mxCell id="lgq6noS7nZ7h5ywPPUq3-1" value="-Calculate parent&#39;s next beacon time based on the parent timeSlot" style="text;html=1;strokeColor=none;fillColor=none;align=center;verticalAlign=middle;whiteSpace=wrap;rounded=0;" parent="1" vertex="1">
          <mxGeometry x="482.5" y="710" width="180" height="20" as="geometry" />
        </mxCell>
        <mxCell id="lgq6noS7nZ7h5ywPPUq3-2" value="-Place parent on -1 position in the Time Slot array and my beacon in the next timeSlot " style="text;html=1;strokeColor=none;fillColor=none;align=center;verticalAlign=middle;whiteSpace=wrap;rounded=0;" parent="1" vertex="1">
          <mxGeometry x="482.5" y="760" width="180" height="20" as="geometry" />
        </mxCell>
        <mxCell id="lgq6noS7nZ7h5ywPPUq3-4" value="QUEUE my and parent&#39;s beacon events" style="text;html=1;strokeColor=none;fillColor=none;align=center;verticalAlign=middle;whiteSpace=wrap;rounded=0;" parent="1" vertex="1">
          <mxGeometry x="652.5" y="622.5" width="180" height="20" as="geometry" />
        </mxCell>
        <mxCell id="lgq6noS7nZ7h5ywPPUq3-7" value="&lt;i&gt;(condition: transmitting CRW beacon event)&lt;/i&gt;" style="text;html=1;strokeColor=#FFFFFF;fillColor=none;align=center;verticalAlign=middle;whiteSpace=wrap;rounded=0;" parent="1" vertex="1">
          <mxGeometry x="805" y="675" width="180" height="20" as="geometry" />
        </mxCell>
        <mxCell id="lgq6noS7nZ7h5ywPPUq3-10" value="&lt;i&gt;(condition: TX done)&lt;/i&gt;" style="text;html=1;strokeColor=#FFFFFF;fillColor=none;align=center;verticalAlign=middle;whiteSpace=wrap;rounded=0;" parent="1" vertex="1">
          <mxGeometry x="1010" y="675" width="180" height="20" as="geometry" />
        </mxCell>
        <mxCell id="lgq6noS7nZ7h5ywPPUq3-11" style="edgeStyle=orthogonalEdgeStyle;rounded=0;orthogonalLoop=1;jettySize=auto;html=1;exitX=0.5;exitY=1;exitDx=0;exitDy=0;" parent="1" source="lgq6noS7nZ7h5ywPPUq3-10" target="lgq6noS7nZ7h5ywPPUq3-10" edge="1">
          <mxGeometry relative="1" as="geometry" />
        </mxCell>
        <mxCell id="lgq6noS7nZ7h5ywPPUq3-12" value="-Check each of the crw time slots for any OTAARegReq -&amp;gt; add them to potential children" style="text;html=1;strokeColor=none;fillColor=none;align=center;verticalAlign=middle;whiteSpace=wrap;rounded=0;" parent="1" vertex="1">
          <mxGeometry x="1210" y="690" width="180" height="20" as="geometry" />
        </mxCell>
        <mxCell id="lgq6noS7nZ7h5ywPPUq3-14" value="QUEUE my beacon and wait for it" style="text;html=1;strokeColor=none;fillColor=none;align=center;verticalAlign=middle;whiteSpace=wrap;rounded=0;" parent="1" vertex="1">
          <mxGeometry x="1350" y="622.5" width="200" height="20" as="geometry" />
        </mxCell>
        <mxCell id="lgq6noS7nZ7h5ywPPUq3-15" value="-Transmit ABPRegAck for each&amp;nbsp; child that requested the connection" style="text;html=1;strokeColor=none;fillColor=none;align=center;verticalAlign=middle;whiteSpace=wrap;rounded=0;" parent="1" vertex="1">
          <mxGeometry x="1540" y="785" width="180" height="20" as="geometry" />
        </mxCell>
        <mxCell id="lgq6noS7nZ7h5ywPPUq3-16" value="&lt;div&gt;OTAARegAck contains: &lt;br&gt;&lt;/div&gt;&lt;div&gt;1. GPS timestamp(start of the packet)&lt;/div&gt;&lt;div&gt;2. Time slot number that we want the child to operate in -&amp;gt; timeSlot number = Time slot position * timeSlot size [ms]&lt;br&gt;&lt;/div&gt;" style="text;html=1;strokeColor=none;fillColor=none;align=center;verticalAlign=middle;whiteSpace=wrap;rounded=0;" parent="1" vertex="1">
          <mxGeometry x="1540" y="870" width="180" height="20" as="geometry" />
        </mxCell>
        <mxCell id="lgq6noS7nZ7h5ywPPUq3-19" value="Connected Idle" style="rounded=1;whiteSpace=wrap;html=1;" parent="1" vertex="1">
          <mxGeometry x="1890" y="632.5" width="100" height="30" as="geometry" />
        </mxCell>
        <mxCell id="lgq6noS7nZ7h5ywPPUq3-20" value="&amp;nbsp;Queue their beacons" style="text;html=1;strokeColor=none;fillColor=none;align=center;verticalAlign=middle;whiteSpace=wrap;rounded=0;" parent="1" vertex="1">
          <mxGeometry x="1680" y="622.5" width="200" height="20" as="geometry" />
        </mxCell>
        <mxCell id="lgq6noS7nZ7h5ywPPUq3-37" style="edgeStyle=orthogonalEdgeStyle;rounded=0;orthogonalLoop=1;jettySize=auto;html=1;exitX=0;exitY=0.75;exitDx=0;exitDy=0;" parent="1" target="q3prYv0-p_nsQXFJC9uw-119" edge="1">
          <mxGeometry relative="1" as="geometry">
            <mxPoint x="1540" y="704.9999999999998" as="sourcePoint" />
            <Array as="points">
              <mxPoint x="1460" y="705" />
              <mxPoint x="1460" y="800" />
              <mxPoint x="610" y="800" />
            </Array>
          </mxGeometry>
        </mxCell>
        <mxCell id="lgq6noS7nZ7h5ywPPUq3-27" value="&lt;i&gt;(condition: OTAARegAck received)&lt;/i&gt;" style="text;html=1;strokeColor=#FFFFFF;fillColor=none;align=center;verticalAlign=middle;whiteSpace=wrap;rounded=0;" parent="1" vertex="1">
          <mxGeometry x="1200" y="1112.5" width="180" height="20" as="geometry" />
        </mxCell>
        <mxCell id="lgq6noS7nZ7h5ywPPUq3-28" value="-Find a potential parent" style="text;html=1;strokeColor=none;fillColor=none;align=center;verticalAlign=middle;whiteSpace=wrap;rounded=0;" parent="1" vertex="1">
          <mxGeometry x="472.5" y="1150" width="180" height="20" as="geometry" />
        </mxCell>
        <mxCell id="lgq6noS7nZ7h5ywPPUq3-29" value="-Find a potential parent" style="text;html=1;strokeColor=none;fillColor=none;align=center;verticalAlign=middle;whiteSpace=wrap;rounded=0;" parent="1" vertex="1">
          <mxGeometry x="790" y="1061.25" width="180" height="20" as="geometry" />
        </mxCell>
        <mxCell id="lgq6noS7nZ7h5ywPPUq3-32" style="edgeStyle=orthogonalEdgeStyle;rounded=0;orthogonalLoop=1;jettySize=auto;html=1;entryX=0.75;entryY=1;entryDx=0;entryDy=0;" parent="1" source="lgq6noS7nZ7h5ywPPUq3-31" target="q3prYv0-p_nsQXFJC9uw-66" edge="1">
          <mxGeometry relative="1" as="geometry" />
        </mxCell>
        <mxCell id="lgq6noS7nZ7h5ywPPUq3-31" value="-Assign the GPSTime from the packet to my time (consider transmission delay +&lt;font color=&quot;#ff6666&quot;&gt; packet transmission time? - different package size causes different reception times&lt;/font&gt;)" style="text;html=1;strokeColor=none;fillColor=none;align=center;verticalAlign=middle;whiteSpace=wrap;rounded=0;" parent="1" vertex="1">
          <mxGeometry x="1210" y="1180" width="180" height="20" as="geometry" />
        </mxCell>
        <mxCell id="lgq6noS7nZ7h5ywPPUq3-33" value="-Assign my beacon time = packet GPSTime + TimeSlot number [ms]" style="text;html=1;strokeColor=none;fillColor=none;align=center;verticalAlign=middle;whiteSpace=wrap;rounded=0;" parent="1" vertex="1">
          <mxGeometry x="1210" y="1250" width="180" height="20" as="geometry" />
        </mxCell>
        <mxCell id="lgq6noS7nZ7h5ywPPUq3-36" style="edgeStyle=orthogonalEdgeStyle;rounded=0;orthogonalLoop=1;jettySize=auto;html=1;exitX=1;exitY=0.5;exitDx=0;exitDy=0;entryX=0.25;entryY=1;entryDx=0;entryDy=0;" parent="1" source="lgq6noS7nZ7h5ywPPUq3-34" target="q3prYv0-p_nsQXFJC9uw-109" edge="1">
          <mxGeometry relative="1" as="geometry">
            <Array as="points">
              <mxPoint x="1980" y="1320" />
            </Array>
          </mxGeometry>
        </mxCell>
        <mxCell id="lgq6noS7nZ7h5ywPPUq3-34" value="-Append parent&#39;s timeSlot to the array based on timeSlot number and save the parent&#39;s timeSlot in the parent object" style="text;html=1;strokeColor=none;fillColor=none;align=center;verticalAlign=middle;whiteSpace=wrap;rounded=0;" parent="1" vertex="1">
          <mxGeometry x="1210" y="1310" width="180" height="20" as="geometry" />
        </mxCell>
        <mxCell id="lgq6noS7nZ7h5ywPPUq3-40" value="Add potential children as children, choose their timeSlots and add the timeSlots to the time slot array and&amp;nbsp; to each child object" style="text;html=1;strokeColor=none;fillColor=none;align=center;verticalAlign=middle;whiteSpace=wrap;rounded=0;" parent="1" vertex="1">
          <mxGeometry x="1540" y="710" width="180" height="20" as="geometry" />
        </mxCell>
        <mxCell id="lgq6noS7nZ7h5ywPPUq3-44" value="" style="rounded=0;whiteSpace=wrap;html=1;" parent="1" vertex="1">
          <mxGeometry x="754" y="1383.25" width="140" height="42.5" as="geometry" />
        </mxCell>
        <mxCell id="lgq6noS7nZ7h5ywPPUq3-46" value="" style="rounded=0;whiteSpace=wrap;html=1;" parent="1" vertex="1">
          <mxGeometry x="894" y="1383.25" width="140" height="42.5" as="geometry" />
        </mxCell>
        <mxCell id="lgq6noS7nZ7h5ywPPUq3-48" value="" style="rounded=0;whiteSpace=wrap;html=1;" parent="1" vertex="1">
          <mxGeometry x="614" y="1383.25" width="140" height="42.5" as="geometry" />
        </mxCell>
        <mxCell id="lgq6noS7nZ7h5ywPPUq3-51" value="" style="rounded=0;whiteSpace=wrap;html=1;fillColor=#B3FF66;" parent="1" vertex="1">
          <mxGeometry x="749" y="1383.25" width="100" height="42.5" as="geometry" />
        </mxCell>
        <mxCell id="lgq6noS7nZ7h5ywPPUq3-63" style="edgeStyle=orthogonalEdgeStyle;rounded=0;orthogonalLoop=1;jettySize=auto;html=1;exitX=0.5;exitY=0;exitDx=0;exitDy=0;entryX=1;entryY=0.5;entryDx=0;entryDy=0;" parent="1" source="lgq6noS7nZ7h5ywPPUq3-52" target="lgq6noS7nZ7h5ywPPUq3-61" edge="1">
          <mxGeometry relative="1" as="geometry">
            <mxPoint x="569" y="1347" as="targetPoint" />
          </mxGeometry>
        </mxCell>
        <mxCell id="lgq6noS7nZ7h5ywPPUq3-52" value="" style="rounded=0;whiteSpace=wrap;html=1;fillColor=#B3FF66;" parent="1" vertex="1">
          <mxGeometry x="614" y="1383.25" width="100" height="42.5" as="geometry" />
        </mxCell>
        <mxCell id="lgq6noS7nZ7h5ywPPUq3-53" value="" style="rounded=0;whiteSpace=wrap;html=1;fillColor=#B3FF66;" parent="1" vertex="1">
          <mxGeometry x="894" y="1383.25" width="100" height="42.5" as="geometry" />
        </mxCell>
        <mxCell id="lgq6noS7nZ7h5ywPPUq3-54" value="" style="shape=curlyBracket;whiteSpace=wrap;html=1;rounded=1;flipH=1;labelPosition=right;verticalLabelPosition=middle;align=left;verticalAlign=middle;rotation=90;" parent="1" vertex="1">
          <mxGeometry x="676.5" y="1383.25" width="15" height="137.5" as="geometry" />
        </mxCell>
        <mxCell id="lgq6noS7nZ7h5ywPPUq3-55" value="" style="shape=curlyBracket;whiteSpace=wrap;html=1;rounded=1;flipH=1;labelPosition=right;verticalLabelPosition=middle;align=left;verticalAlign=middle;rotation=-90;" parent="1" vertex="1">
          <mxGeometry x="660.25" y="1297" width="15" height="90" as="geometry" />
        </mxCell>
        <mxCell id="lgq6noS7nZ7h5ywPPUq3-56" value="Time Slot" style="text;html=1;strokeColor=none;fillColor=none;align=center;verticalAlign=middle;whiteSpace=wrap;rounded=0;" parent="1" vertex="1">
          <mxGeometry x="654" y="1460.75" width="60" height="30" as="geometry" />
        </mxCell>
        <mxCell id="lgq6noS7nZ7h5ywPPUq3-57" value="RX timeout" style="text;html=1;strokeColor=none;fillColor=none;align=center;verticalAlign=middle;whiteSpace=wrap;rounded=0;" parent="1" vertex="1">
          <mxGeometry x="637.75" y="1303.25" width="60" height="30" as="geometry" />
        </mxCell>
        <mxCell id="lgq6noS7nZ7h5ywPPUq3-58" value="" style="shape=curlyBracket;whiteSpace=wrap;html=1;rounded=1;flipH=1;labelPosition=right;verticalLabelPosition=middle;align=left;verticalAlign=middle;rotation=-90;" parent="1" vertex="1">
          <mxGeometry x="727.75" y="1323.25" width="15" height="32.5" as="geometry" />
        </mxCell>
        <mxCell id="lgq6noS7nZ7h5ywPPUq3-59" value="Padding" style="text;html=1;strokeColor=none;fillColor=none;align=center;verticalAlign=middle;whiteSpace=wrap;rounded=0;" parent="1" vertex="1">
          <mxGeometry x="714" y="1297" width="60" height="30" as="geometry" />
        </mxCell>
        <mxCell id="lgq6noS7nZ7h5ywPPUq3-61" value="transmission delay = RX timeout /2" style="text;html=1;strokeColor=none;fillColor=none;align=center;verticalAlign=middle;whiteSpace=wrap;rounded=0;" parent="1" vertex="1">
          <mxGeometry x="394" y="1344.5" width="152.5" height="30" as="geometry" />
        </mxCell>
        <mxCell id="lgq6noS7nZ7h5ywPPUq3-66" value="" style="swimlane;startSize=0;" parent="1" vertex="1">
          <mxGeometry x="370" y="1260" width="699" height="267" as="geometry">
            <mxRectangle x="261" y="1413" width="50" height="40" as="alternateBounds" />
          </mxGeometry>
        </mxCell>
        <mxCell id="lgq6noS7nZ7h5ywPPUq3-70" style="edgeStyle=orthogonalEdgeStyle;rounded=0;orthogonalLoop=1;jettySize=auto;html=1;exitX=1;exitY=0.5;exitDx=0;exitDy=0;entryX=0.5;entryY=1;entryDx=0;entryDy=0;" parent="1" source="lgq6noS7nZ7h5ywPPUq3-69" target="q3prYv0-p_nsQXFJC9uw-66" edge="1">
          <mxGeometry relative="1" as="geometry">
            <mxPoint x="250" y="1170" as="targetPoint" />
          </mxGeometry>
        </mxCell>
        <mxCell id="lgq6noS7nZ7h5ywPPUq3-69" value="Update GPS Time on every parent beacon transmission (consider transmission delay +&lt;font color=&quot;#ff6666&quot;&gt; packet transmission time? - different package size causes different reception times&lt;/font&gt;)" style="text;html=1;strokeColor=none;fillColor=none;align=center;verticalAlign=middle;whiteSpace=wrap;rounded=0;" parent="1" vertex="1">
          <mxGeometry x="50" y="1240" width="180" height="20" as="geometry" />
        </mxCell>
        <mxCell id="lgq6noS7nZ7h5ywPPUq3-74" value="QUEUE my and parent&#39;s beacon events" style="text;html=1;strokeColor=none;fillColor=none;align=center;verticalAlign=middle;whiteSpace=wrap;rounded=0;" parent="1" vertex="1">
          <mxGeometry x="1460" y="1061.25" width="180" height="20" as="geometry" />
        </mxCell>
        <mxCell id="lgq6noS7nZ7h5ywPPUq3-76" value="" style="endArrow=classic;html=1;rounded=0;exitX=1;exitY=0.5;exitDx=0;exitDy=0;" parent="1" source="q3prYv0-p_nsQXFJC9uw-40" edge="1">
          <mxGeometry width="50" height="50" relative="1" as="geometry">
            <mxPoint x="1940" y="1120" as="sourcePoint" />
            <mxPoint x="1960" y="1086" as="targetPoint" />
          </mxGeometry>
        </mxCell>
        <mxCell id="lgq6noS7nZ7h5ywPPUq3-77" style="edgeStyle=orthogonalEdgeStyle;rounded=0;orthogonalLoop=1;jettySize=auto;html=1;exitX=1;exitY=0.5;exitDx=0;exitDy=0;" parent="1" source="q3prYv0-p_nsQXFJC9uw-40" edge="1">
          <mxGeometry relative="1" as="geometry">
            <mxPoint x="1960" y="1140" as="targetPoint" />
            <mxPoint x="1898" y="1096" as="sourcePoint" />
            <Array as="points">
              <mxPoint x="1920" y="1086" />
              <mxPoint x="1920" y="1140" />
              <mxPoint x="1960" y="1140" />
            </Array>
          </mxGeometry>
        </mxCell>
        <mxCell id="lgq6noS7nZ7h5ywPPUq3-78" value="Update GPSTime on every parent beacon" style="text;html=1;strokeColor=none;fillColor=none;align=center;verticalAlign=middle;whiteSpace=wrap;rounded=0;" parent="1" vertex="1">
          <mxGeometry x="1967.5" y="1010" width="135" height="31" as="geometry" />
        </mxCell>
        <mxCell id="lgq6noS7nZ7h5ywPPUq3-79" value="If parent disconnects, free the timeSlot and delete the parent-&amp;gt;return to IdleState" style="text;html=1;strokeColor=none;fillColor=none;align=center;verticalAlign=middle;whiteSpace=wrap;rounded=0;" parent="1" vertex="1">
          <mxGeometry x="1975" y="1071.25" width="135" height="31" as="geometry" />
        </mxCell>
        <mxCell id="lgq6noS7nZ7h5ywPPUq3-81" value="If child disconnects, free the timeSlot and delete the child" style="text;html=1;strokeColor=none;fillColor=none;align=center;verticalAlign=middle;whiteSpace=wrap;rounded=0;" parent="1" vertex="1">
          <mxGeometry x="1975" y="1130" width="135" height="31" as="geometry" />
        </mxCell>
        <mxCell id="lgq6noS7nZ7h5ywPPUq3-82" style="edgeStyle=orthogonalEdgeStyle;rounded=0;orthogonalLoop=1;jettySize=auto;html=1;exitX=1;exitY=0.5;exitDx=0;exitDy=0;" parent="1" edge="1">
          <mxGeometry relative="1" as="geometry">
            <mxPoint x="2062" y="592.47" as="targetPoint" />
            <mxPoint x="1990" y="648.47" as="sourcePoint" />
            <Array as="points">
              <mxPoint x="2022" y="648.47" />
              <mxPoint x="2022" y="592.47" />
            </Array>
          </mxGeometry>
        </mxCell>
        <mxCell id="lgq6noS7nZ7h5ywPPUq3-83" value="" style="endArrow=classic;html=1;rounded=0;exitX=1;exitY=0.5;exitDx=0;exitDy=0;" parent="1" edge="1">
          <mxGeometry width="50" height="50" relative="1" as="geometry">
            <mxPoint x="1990" y="648.47" as="sourcePoint" />
            <mxPoint x="2062" y="648.47" as="targetPoint" />
          </mxGeometry>
        </mxCell>
        <mxCell id="lgq6noS7nZ7h5ywPPUq3-84" style="edgeStyle=orthogonalEdgeStyle;rounded=0;orthogonalLoop=1;jettySize=auto;html=1;exitX=1;exitY=0.5;exitDx=0;exitDy=0;" parent="1" edge="1">
          <mxGeometry relative="1" as="geometry">
            <mxPoint x="2062" y="702.47" as="targetPoint" />
            <mxPoint x="1990" y="648.47" as="sourcePoint" />
            <Array as="points">
              <mxPoint x="2022" y="648.47" />
              <mxPoint x="2022" y="702.47" />
              <mxPoint x="2062" y="702.47" />
            </Array>
          </mxGeometry>
        </mxCell>
        <mxCell id="lgq6noS7nZ7h5ywPPUq3-85" value="If child disconnects, free the timeSlot and delete the child" style="text;html=1;strokeColor=none;fillColor=none;align=center;verticalAlign=middle;whiteSpace=wrap;rounded=0;" parent="1" vertex="1">
          <mxGeometry x="2070" y="639" width="135" height="31" as="geometry" />
        </mxCell>
        <mxCell id="saOsaBJhIJbU-q0FbIYu-118" value="" style="swimlane;startSize=0;fillColor=#F8CECC;strokeColor=#b85450;" vertex="1" parent="1">
          <mxGeometry x="-15" y="568" width="325" height="752" as="geometry" />
        </mxCell>
        <mxCell id="saOsaBJhIJbU-q0FbIYu-120" value="timestamp request" style="text;html=1;align=center;verticalAlign=middle;resizable=0;points=[];autosize=1;strokeColor=#B85450;fillColor=#FFFFFF;" vertex="1" parent="1">
          <mxGeometry x="-21" y="1323.25" width="120" height="30" as="geometry" />
        </mxCell>
      </root>
    </mxGraphModel>
  </diagram>
</mxfile>
